<svg width="70" height="70" fill="none" xmlns="http://www.w3.org/2000/svg"><path d="m67.32 48.34-18.47-18.6 2.05-10.1c.53.2 1.09.31 1.66.32h.01a4.72 4.72 0 1 0-4.4-3.14l-10.84 1.32L19.63.35A1.17 1.17 0 0 0 18.8 0c-.3 0-.6.12-.81.34l-3.31 3.29c-.46.46-.46 1.2 0 1.65l1.78 1.8a32.69 32.69 0 0 0 5.51 38.64c.1.1.2.16.32.22-.07.4-.11.8-.11 1.2v13.53h-14a5.84 5.84 0 0 0-5.84 5.83v2.33c0 .65.52 1.17 1.17 1.17h53.67c.64 0 1.16-.52 1.16-1.17V66.5a5.84 5.84 0 0 0-5.83-5.83h-14v-6a32.48 32.48 0 0 0 22.07-3.2l1.79 1.8a1.14 1.14 0 0 0 1.64.01l3.3-3.3c.46-.45.46-1.19 0-1.64Zm-16.4-34.7a2.33 2.33 0 1 1 1.65 3.98 2.33 2.33 0 0 1-1.64-3.99Zm-2.74 7.66-1.31 6.44-2.57-2.58 3.88-3.86Zm-1.33-1.97-4.2 4.17-3.25-3.26 7.45-.91ZM52.51 63a3.5 3.5 0 0 1 3.5 3.5v1.17H4.68V66.5a3.5 3.5 0 0 1 3.5-3.5H52.5Zm-16.33-4.67v2.34H24.5v-2.34h11.67ZM24.5 56v-8.87c0-2.83 2.62-5.13 5.83-5.13 3.22 0 5.84 2.3 5.84 5.13V56H24.5Zm14-3.71v-5.16c0-4.11-3.66-7.46-8.17-7.46a8.31 8.31 0 0 0-7.18 3.9 30.34 30.34 0 0 1-4.98-34.75l40.7 40.93a30.23 30.23 0 0 1-20.37 2.54Zm24.7-1.5-1.65-1.65L18.79 6.12l-1.65-1.66 1.65-1.64 17.36 17.45.02.02 28.69 28.86-1.66 1.64Z" fill="#212121"/><path d="M30.35 44.33a3.5 3.5 0 0 0-.02 7h.01a3.5 3.5 0 1 0 .01-7Zm.82 4.33a1.17 1.17 0 1 1-.83-2 1.17 1.17 0 0 1 .82 2Z" fill="#2196F3"/></svg>