<svg width="70" height="70" fill="none" xmlns="http://www.w3.org/2000/svg"><path d="M69.94 9.9c-.13-.42-.5-.73-.94-.8l-4.18-.6-1.87-3.8c-.39-.79-1.7-.79-2.09 0L59 8.5l-4.18.6a1.17 1.17 0 0 0-.65 2l3.03 2.94-.71 4.16a1.17 1.17 0 0 0 1.69 1.23l3.74-1.96 3.73 1.96a1.17 1.17 0 0 0 1.7-1.23l-.72-4.16 3.03-2.95c.32-.3.43-.77.3-1.2Zm-5.38 2.9c-.28.27-.4.65-.34 1.03l.42 2.44-2.19-1.15a1.16 1.16 0 0 0-1.09 0l-2.19 1.15.42-2.44c.07-.38-.06-.76-.33-1.03l-1.78-1.73 2.45-.35c.38-.06.71-.3.88-.64l1.1-2.22L63 10.08c.17.34.5.58.88.64l2.45.35-1.77 1.73Zm-7.39 32.1h-2.34v2.33h2.34v-2.34Zm0 4.66h-2.34v2.33h2.34v-2.33Zm2.33-2.33h-2.33v2.33h2.33v-2.33Zm-4.67 0H52.5v2.33h2.33v-2.33ZM49 57.73h-2.33v2.33H49v-2.33Zm0 4.67h-2.33v2.33H49v-2.34Zm2.33-2.34H49v2.33h2.33v-2.33Zm-4.66 0h-2.34v2.33h2.34v-2.33Zm-11.67-7h-2.33v2.33H35v-2.33Zm0 4.67h-2.33v2.33H35v-2.33Zm2.33-2.33H35v2.33h2.33v-2.34Zm-4.66 0h-2.34v2.33h2.34v-2.34Zm-19.84-42H10.5v2.33h2.33v-2.34Zm0 4.66H10.5v2.33h2.33v-2.33Zm2.34-2.33h-2.34v2.33h2.34v-2.33Zm-4.67 0H8.17v2.33h2.33v-2.33Z" fill="#2196F3"/><path d="M54.06 30.97a3.88 3.88 0 0 0-2.6-1.54 3.89 3.89 0 0 0-2.93.77l-2.73 2.1-4.16 3.1-2.97-1.18c5.3-2.38 9-7.67 9-13.83 0-8.36-6.83-15.16-15.23-15.16s-15.22 6.8-15.22 15.16a15 15 0 0 0 2.45 8.23l-6.05-.06h-.01l-.05.01a.98.98 0 0 0-.34.07l-.08.03-.05.01-7.07 3.5-4.14 1.99a3.9 3.9 0 0 0 3.88 6.76l3.03-1.61 4.95-2.56 2.97-.02L4.81 48.6l-2.93 2.92a3.6 3.6 0 0 0 0 5.15 3.65 3.65 0 0 0 5.16 0L9.9 53.8l3.81-2.84 1.97 1.96-3.85 3.84-2.93 2.91a3.6 3.6 0 0 0 0 5.16 3.65 3.65 0 0 0 5.16 0L17 61.9l4.68-4.66 2.22-2.2h-.01l.04-.04 11.3-12.38 7.6 1.09a1.1 1.1 0 0 0 .57-.08l.11-.05c.04-.02.09-.03.13-.06l7.03-4.66.06-.07.09-.05 2.78-2.61a3.9 3.9 0 0 0 .46-5.17Zm-49.4 7.9a1.56 1.56 0 0 1-1.69-2.64l2.88-1.38.69 2.02.29.85-2.17 1.15Zm7.65-4-3.39 1.75L8.36 35l-.4-1.17 4.44-2.2-.09 3.25ZM45.34 20.4c0 2.01-.48 3.9-1.31 5.6l-9.15-4.15a4.07 4.07 0 0 0-1.72-3.04l3.2-10.63c5.2 1.65 8.98 6.5 8.98 12.22Zm-25.79 0A12.88 12.88 0 0 1 34.08 7.67l-3.14 10.4-.12-.01a4.1 4.1 0 0 0-4.1 4.08 4.1 4.1 0 0 0 7.64 2.02L42.8 28a12.89 12.89 0 0 1-23.26-7.6Zm13.03 1.75a1.76 1.76 0 0 1-3.53 0 1.77 1.77 0 0 1 3.53 0ZM5.4 55.01c-.51.51-1.35.5-1.87 0a1.3 1.3 0 0 1 0-1.85l2.1-2.1 1.87 1.86L5.39 55Zm7.03 8.16c-.51.52-1.35.52-1.87 0a1.3 1.3 0 0 1 0-1.84l2.1-2.1.89.88.98.97-2.1 2.1Zm7.62-7.58-3.87 3.85-.88-.88-.98-.98 3.86-3.83c.09-.1.14-.2.2-.3l.05-.1c.04-.08.05-.18.06-.27 0-.06.03-.1.03-.16 0-.08-.03-.16-.04-.23l-.04-.21c-.05-.11-.12-.2-.2-.3l-.06-.09-3.52-3.5c-.03-.04-.08-.05-.12-.08-.07-.05-.13-.1-.2-.13a1.1 1.1 0 0 0-.2-.07 1.13 1.13 0 0 0-.22-.05c-.07 0-.14 0-.21.02-.08 0-.15.02-.23.04a.75.75 0 0 0-.2.1c-.05.02-.1.03-.14.06l-3.88 2.9-1.97-1.97 5.25-5.22 9.54 9.39-2.03 2Zm14.91-15.35h-.1a1.15 1.15 0 0 0-.83.3l-.09.07-10.28 11.25-9.46-9.3 6.2-6.17a1.17 1.17 0 0 0-.84-2l-4.85.03.06-3.52 6.79.06a15.2 15.2 0 0 0 13.7 4.33c.08.07.17.14.28.19l5.27 2.1.33 1.66.4 1.93-6.58-.93Zm8.84.39-.68-3.41 3.16-2.36.83 1.1 1.24 1.64-4.55 3.03Zm8.22-6.2-1.84 1.72-2.03-2.7 1.81-1.4a1.6 1.6 0 0 1 1.2-.31 1.57 1.57 0 0 1 .86 2.7Z" fill="#212121"/><path d="m29.75 40.57-4.68-4.67a1.17 1.17 0 0 0-1.65 0l-4.69 4.67a1.17 1.17 0 0 0 0 1.65l4.69 4.67a1.17 1.17 0 0 0 1.65 0l4.68-4.67a1.17 1.17 0 0 0 0-1.65Zm-5.5 3.84L21.2 41.4l3.03-3.02 3.04 3.02-3.04 3.02Zm13.3-33.31-.57 2.26c.16.04 3.8.99 3.8 4.7h2.34c0-4.41-3.65-6.49-5.57-6.97Zm5.57 9.3h-2.34v2.33h2.34v-2.34Z" fill="#212121"/></svg>